# xmcd
#
# Track frame offsets: 
#        182
#        16520
#        32162
#        46155
#        61947
#        78682
#        92440
#        107147
#        120100
#        137557
#
# Disc length: 2060 seconds
#
# Revision: 12
# Processed by: cddbd v1.5.2PL0 Copyright (c) Steve Scherf et al.
# Submitted via: ExactAudioCopy v0.99pb4
#
DISCID=6c080a0a
DTITLE=Tracy Lawrence - I See It Now
DYEAR=1994
DGENRE=Country
TTITLE0=I See It Now
TTITLE1=Guilt Trip
TTITLE2=If the World Had a Front Porch
TTITLE3=Texas Tornado
TTITLE4=Hillbilly with a Heartache (with John Anderson)
TTITLE5=As Any Fool Can See
TTITLE6=God Made Woman on a Good Day
TTITLE7=I Got a Feelin'
TTITLE8=The Cards
TTITLE9=I'd Give Anything to Be Your Everything Again
EXTD=YEAR: 1994
EXTT0=
EXTT1=
EXTT2=
EXTT3=
EXTT4=
EXTT5=
EXTT6=
EXTT7=
EXTT8=
EXTT9=
PLAYORDER=
